<?xml version="1.0" encoding="UTF-8"?>
<svg width="81px" height="88px" viewBox="0 0 81 88" version="1.1" xmlns="http://www.w3.org/2000/svg" xmlns:xlink="http://www.w3.org/1999/xlink">
    <!-- Generator: Sketch 55.2 (78181) - https://sketchapp.com -->
    <title>Icon/UX</title>
    <desc>Created with Sketch.</desc>
    <g id="Page-1" stroke="none" stroke-width="1" fill="none" fill-rule="evenodd">
        <g id="Icons_Why-Incede-Copy" transform="translate(-360.000000, -302.000000)">
            <g id="Icon/UX" transform="translate(350.000000, 295.000000)">
                <rect id="Rectangle" fill-opacity="0" fill="#CACACA" x="0" y="0" width="101" height="101"></rect>
                <path d="M56.9914286,15.5656922 L89.9140794,34.5735935 C90.359617,34.8308247 90.6340794,35.3062077 90.6340794,35.8206701 L90.6340794,73.8364728 C90.6340794,74.3509352 90.359617,74.8263181 89.9140794,75.0835493 L56.9914286,94.0914507 C56.545891,94.3486819 55.9969661,94.3486819 55.5514286,94.0914507 L22.6287777,75.0835493 C22.1832402,74.8263181 21.9087777,74.3509352 21.9087777,73.8364728 L21.9087777,35.8206701 C21.9087777,35.3062077 22.1832402,34.8308247 22.6287777,34.5735935 L55.5514286,15.5656922 C55.9969661,15.308461 56.545891,15.308461 56.9914286,15.5656922 Z" id="Polygon" fill-opacity="0.36" fill="#ED8D58"></path>
                <path d="M49.0557143,7.62997791 L85.1022425,28.4414507 C85.54778,28.6986819 85.8222425,29.1740648 85.8222425,29.6885272 L85.8222425,71.3114728 C85.8222425,71.8259352 85.54778,72.3013181 85.1022425,72.5585493 L49.0557143,93.3700221 C48.6101767,93.6272533 48.0612518,93.6272533 47.6157143,93.3700221 L11.5691861,72.5585493 C11.1236485,72.3013181 10.8491861,71.8259352 10.8491861,71.3114728 L10.8491861,29.6885272 C10.8491861,29.1740648 11.1236485,28.6986819 11.5691861,28.4414507 L47.6157143,7.62997791 C48.0612518,7.37274668 48.6101767,7.37274668 49.0557143,7.62997791 Z" id="Polygon" fill="#5C4ABB"></path>
                <path d="M21.6999775,40.7814043 C20.5998899,43.8143631 20,47.0871256 20,50.5 C20,53.8108279 20.5645522,56.9897975 21.6026424,59.9458946 M24.4280088,65.7642042 C28.8755727,72.7634696 36.2918009,77.6912194 44.9046243,78.7753846 M51.14783,78.8786292 C60.1698965,78.0474559 67.9740553,73.0111846 72.5825551,65.7475667 M75.4956811,59.6610605 C76.471046,56.7859462 77,53.704745 77,50.5 C77,47.2051177 76.4408726,44.0408266 75.4123235,41.0968322 M72.2372185,34.7212665 C67.6363709,27.8136475 60.1006642,23.0284766 51.4112079,22.146863 M44.3528927,22.2995476 C36.0553951,23.5091622 28.9176847,28.2939486 24.553325,35.0403437" id="Shape" stroke="#FFFFFF" stroke-width="2" stroke-linecap="round" stroke-linejoin="round"></path>
                <circle id="Oval" stroke="#FFFFFF" stroke-width="2" stroke-linecap="round" stroke-linejoin="round" cx="48" cy="22" r="3"></circle>
                <circle id="Oval" stroke="#FFFFFF" stroke-width="2" stroke-linecap="round" stroke-linejoin="round" cx="74" cy="38" r="3"></circle>
                <circle id="Oval" stroke="#FFFFFF" stroke-width="2" stroke-linecap="round" stroke-linejoin="round" cx="23" cy="38" r="3"></circle>
                <circle id="Oval" stroke="#FFFFFF" stroke-width="2" stroke-linecap="round" stroke-linejoin="round" cx="74" cy="63" r="3"></circle>
                <circle id="Oval" stroke="#FFFFFF" stroke-width="2" stroke-linecap="round" stroke-linejoin="round" cx="23" cy="63" r="3"></circle>
                <circle id="Oval" stroke="#FFFFFF" stroke-width="2" stroke-linecap="round" stroke-linejoin="round" cx="48" cy="79" r="3"></circle>
                <g id="Group" transform="translate(34.000000, 33.000000)" stroke="#FFFFFF" stroke-linecap="round" stroke-linejoin="round" stroke-width="2">
                    <circle id="Oval" cx="14.4285714" cy="7.21428571" r="7.21428571"></circle>
                    <path d="M7.26139255,18.4138551 C7.83412381,18.0924363 8.42996807,17.8158873 9.04543662,17.5894228 C9.14425061,17.5530637 9.25317975,17.5640294 9.34369841,17.6194482 C10.4670809,18.3072234 13.9067546,18.5149173 15.238731,18.5149173 C16.5518443,18.5149173 19.6609472,18.1574559 20.77316,17.4880311 C20.8640354,17.4333346 20.9730008,17.423205 21.071537,17.4602937 C26.4462363,19.4833077 30.3,25.3270232 30.3,31.4880744 C30.3,31.6972679 30.1393099,31.8668527 29.9410885,31.8668527 L0.358911469,31.8668527 C0.160690138,31.8668527 1.45483625e-12,31.6972679 1.45483625e-12,31.4880744 C1.45483625e-12,27.795407 2.23636985,23.2261799 3.64892635,21.5087438 C4.59063068,20.3637864 5.79478608,19.3321568 7.26139255,18.4138551 Z" id="Path"></path>
                </g>
            </g>
        </g>
    </g>
</svg>