<?xml version="1.0" encoding="UTF-8"?>
<svg width="80px" height="87px" viewBox="0 0 80 87" version="1.1" xmlns="http://www.w3.org/2000/svg" xmlns:xlink="http://www.w3.org/1999/xlink">
    <!-- Generator: Sketch 55.2 (78181) - https://sketchapp.com -->
    <title>Icon/Web Applications</title>
    <desc>Created with Sketch.</desc>
    <g id="Page-1" stroke="none" stroke-width="1" fill="none" fill-rule="evenodd">
        <g id="Icons_Why-Incede-Copy" transform="translate(-356.000000, -603.000000)">
            <g id="Icon/Web-Applications" transform="translate(346.000000, 596.000000)">
                <rect id="Rectangle" fill-opacity="0" fill="#CACACA" x="0" y="0" width="100" height="100"></rect>
                <path d="M56.4342857,15.4156922 L89.0167123,34.2271649 C89.4622498,34.4843962 89.7367123,34.9597791 89.7367123,35.4742415 L89.7367123,73.097187 C89.7367123,73.6116495 89.4622498,74.0870324 89.0167123,74.3442636 L56.4342857,93.1557364 C55.9887482,93.4129676 55.4398233,93.4129676 54.9942857,93.1557364 L22.4118591,74.3442636 C21.9663216,74.0870324 21.6918591,73.6116495 21.6918591,73.097187 L21.6918591,35.4742415 C21.6918591,34.9597791 21.9663216,34.4843962 22.4118591,34.2271649 L54.9942857,15.4156922 C55.4398233,15.158461 55.9887482,15.158461 56.4342857,15.4156922 Z" id="Polygon" fill-opacity="0.36" fill="#ED8D58"></path>
                <path d="M48.5771429,7.55854934 L84.2525173,28.1557364 C84.6980549,28.4129676 84.9725173,28.8883505 84.9725173,29.402813 L84.9725173,70.597187 C84.9725173,71.1116495 84.6980549,71.5870324 84.2525173,71.8442636 L48.5771429,92.4414507 C48.1316053,92.6986819 47.5826804,92.6986819 47.1371429,92.4414507 L11.4617684,71.8442636 C11.0162309,71.5870324 10.7417684,71.1116495 10.7417684,70.597187 L10.7417684,29.402813 C10.7417684,28.8883505 11.0162309,28.4129676 11.4617684,28.1557364 L47.1371429,7.55854934 C47.5826804,7.30131811 48.1316053,7.30131811 48.5771429,7.55854934 Z" id="Polygon" fill="#5C4ABB"></path>
                <g id="Icon/Header/Settings" transform="translate(37.000000, 39.000000)">
                    <rect id="Rectangle" fill-opacity="0" fill="#D8D8D8" x="0" y="0" width="20" height="20"></rect>
                    <path d="M4.0668427,6.12923747 L2.78161828,4.84401305 L4.84401305,2.78161828 L6.12923747,4.0668427 C6.8524802,3.59404002 7.66745818,3.24990686 8.54166667,3.06694796 L8.54166667,1.25 L11.4583333,1.25 L11.4583333,3.06694796 C12.3325418,3.24990686 13.1475198,3.59404002 13.8707625,4.0668427 L15.1559869,2.78161828 L17.2183817,4.84401305 L15.9331573,6.12923747 C16.40596,6.8524802 16.7500931,7.66745818 16.933052,8.54166667 L18.75,8.54166667 L18.75,11.4583333 L16.933052,11.4583333 C16.7500931,12.3325418 16.40596,13.1475198 15.9331573,13.8707625 L17.2183817,15.1559869 L15.1559869,17.2183817 L13.8707625,15.9331573 C13.1475198,16.40596 12.3325418,16.7500931 11.4583333,16.933052 L11.4583333,18.75 L8.54166667,18.75 L8.54166667,16.933052 C7.66745818,16.7500931 6.8524802,16.40596 6.12923747,15.9331573 L4.84401305,17.2183817 L2.78161828,15.1559869 L4.0668427,13.8707625 C3.59404002,13.1475198 3.24990686,12.3325418 3.06694796,11.4583333 L1.25,11.4583333 L1.25,8.54166667 L3.06694796,8.54166667 C3.1845916,8.05485913 3.30336807,7.6668038 3.42327736,7.37750068 C3.54318665,7.08819755 3.75770843,6.67210982 4.0668427,6.12923747 Z" id="Path" stroke="#FFFFFF" stroke-width="2" stroke-linecap="round" stroke-linejoin="round"></path>
                    <circle id="Oval" stroke="#FFFFFF" stroke-width="2" stroke-linecap="round" stroke-linejoin="round" cx="10" cy="10" r="2.91666667"></circle>
                </g>
                <path d="M26.875,64 C25.8394661,64 25,63.1605339 25,62.125 L25,35.875 C25,34.8394661 25.8394661,34 26.875,34 L68.125,34 C69.1605339,34 70,34.8394661 70,35.875 L70,50.9840407 L70,61.3999999 C70,62.8359403 68.8359403,64 67.3999999,64 L26.875,64 Z" id="Path" stroke="#FFFFFF" stroke-width="2" stroke-linecap="round" stroke-linejoin="round"></path>
                <path d="M47.5306122,64.3877551 L47.5306122,69.8979592" id="Path-3" stroke="#FFFFFF" stroke-width="2" stroke-linecap="round" stroke-linejoin="round"></path>
                <path d="M41.8979592,69.8979592 L53.1632653,69.8979592" id="Path-4" stroke="#FFFFFF" stroke-width="2" stroke-linecap="round" stroke-linejoin="round"></path>
            </g>
        </g>
    </g>
</svg>