<?xml version="1.0" encoding="UTF-8"?>
<svg width="18px" height="18px" viewBox="0 0 18 18" version="1.1" xmlns="http://www.w3.org/2000/svg" xmlns:xlink="http://www.w3.org/1999/xlink">
    <!-- Generator: Sketch 55.2 (78181) - https://sketchapp.com -->
    <title>Icon/Call</title>
    <desc>Created with Sketch.</desc>
    <g id="Page-1" stroke="none" stroke-width="1" fill="none" fill-rule="evenodd">
        <g id="Incede_Website" transform="translate(-272.000000, -3898.000000)">
            <g id="Icon/Call" transform="translate(270.000000, 3896.000000)">
                <rect id="Rectangle" x="0" y="0" width="22" height="22"></rect>
                <path d="M3.24423403,9.27171402 C2.62463261,7.63575065 3.12550168,5.61118655 4.42527222,4.31215525 L5.38467962,3.35329353 C5.85577313,2.88246795 6.61956682,2.88246788 7.09066041,3.35329353 C7.15834045,3.42093508 7.217725,3.49638665 7.26756126,3.57805628 L8.82230521,6.12591038 C9.11221286,6.60099991 9.03911329,7.21267319 8.64540439,7.60615816 L7.44369228,8.80718679 C8.17148833,9.76259379 9.34162027,11.0460735 10.1771363,11.8811143 C10.9973744,12.7008859 12.3596086,13.9524635 13.2891102,14.6616727 L14.501276,13.4501964 C14.8930194,13.0586757 15.5012338,12.9841675 15.9759931,13.2695386 L18.4152364,14.7357329 C18.9861614,15.0789077 19.1706309,15.8196688 18.8272609,16.390269 C18.7766456,16.4743797 18.7159428,16.5519982 18.6465002,16.6214013 L17.6940117,17.5733481 C15.972811,19.2935698 13.2456278,19.4809484 11.3050663,18.0123334 C10.0488609,17.0616218 8.76082299,15.9267061 7.44095266,14.6075865 C6.40682425,13.5740462 5.44370788,12.6200139 4.67056429,11.5581249 C3.89742071,10.4962359 3.37146132,9.60763833 3.24423403,9.27171402 Z" id="Path" stroke="#474747" stroke-width="1.2" stroke-linecap="round" stroke-linejoin="round" transform="translate(10.990013, 11.000174) rotate(-1.000000) translate(-10.990013, -11.000174) "></path>
            </g>
        </g>
    </g>
</svg>