<svg xmlns="http://www.w3.org/2000/svg" xmlns:xlink="http://www.w3.org/1999/xlink" width="48px" height="36px" viewBox="0 0 48 36" version="1.1">
    <title>Icon/Let Us Converse</title>
    <g id="Page-1" stroke="none" stroke-width="1" fill="none" fill-rule="evenodd" stroke-linecap="round" stroke-linejoin="round">
        <g id="Incede_Website" transform="translate(-30.000000, -418.000000)" stroke="#474747">
            <g id="Sidebar" transform="translate(0.000000, 88.000000)">
                <g id="Icon/Let-Us-Converse" transform="translate(31.000000, 331.000000)">
                    <path d="M1.91999996,0 L36.08,0 C37.1403867,-4.16834481e-16 38,0.859613263 38,1.91999996 L38,22.7613272 C38,23.8217139 37.1403867,24.6813272 36.08,24.6813272 L12.2245379,24.6813272 L6.73098201,29 L6.73098201,24.6813272 L1.91999996,24.6813272 C0.859613263,24.6813272 1.29859918e-16,23.8217139 0,22.7613272 L0,1.91999996 C-1.29859918e-16,0.859613263 0.859613263,1.52705751e-15 1.91999996,0 Z" id="Rectangle" stroke-width="1.5999999"/>
                    <path d="M6.33333333,6.44444444 L15.8333333,6.44444444" id="Path-6" stroke-width="1.5999999"/>
                    <path d="M6.33333333,12.0833333 L30.0833333,12.0833333" id="Path-6" stroke-width="1.5999999"/>
                    <path d="M6.33333333,17.7222222 L30.0833333,17.7222222" id="Path-6" stroke-width="1.5999999"/>
                    <path d="M46,24.6882787 L46,29.6776049 C46,30.4198756 45.3982707,31.0216049 44.6559999,31.0216049 L27.6858559,31.0216049 L23.7825399,34 L23.7825399,31.0216049 L20.3440001,31.0216049 C19.6017293,31.0216049 19,30.4198756 19,29.6776049 L19,15.3440001 C19,14.6017293 19.6017293,14 20.3440001,14 L20.3440001,14 L26.9646633,14" id="Path" stroke-width="1.6" transform="translate(32.500000, 24.000000) scale(-1, 1) translate(-32.500000, -24.000000) "/>
                </g>
            </g>
        </g>
    </g>
</svg>