<?xml version="1.0" encoding="UTF-8"?>
<svg width="155px" height="33px" viewBox="0 0 155 33" version="1.1" xmlns="http://www.w3.org/2000/svg" xmlns:xlink="http://www.w3.org/1999/xlink">
    <g id="Page-1" stroke="none" stroke-width="1" fill="none" fill-rule="evenodd">
        <g id="Incede_Website" transform="translate(-102.000000, -4458.000000)" fill="#FFFFFF" fill-rule="nonzero">
            <g id="Footer" transform="translate(0.000000, 4388.000000)">
                <g id="Logo/Logo_4" transform="translate(102.000000, 70.000000)">
                    <path d="M0.706687185,31.9749991 L0.706687185,10.5846518 L7.36062651,10.5846518 L7.36062651,31.9749991 L0.706687185,31.9749991 Z M4.05245329,7.61481445 C1.79688063,7.61481445 0.217979776,6.1862851 0.217979776,4.19386259 C0.217979776,2.16384721 1.79688063,0.735317858 4.05245329,0.735317858 C6.27043306,0.735317858 7.84933392,2.16384721 7.84933392,4.19386259 C7.84933392,6.1862851 6.27043306,7.61481445 4.05245329,7.61481445 Z M12.7740009,31.9749991 L12.7740009,10.5846518 L18.2249681,10.5846518 L18.6760827,13.2537461 L18.8264542,13.2537461 C20.5933194,11.5244737 22.7737063,10.0583515 25.6683579,10.0583515 C30.3298747,10.0583515 32.3222972,13.4041176 32.3222972,18.7423062 L32.3222972,31.9749991 L25.630765,31.9749991 L25.630765,19.5693495 C25.630765,16.6371051 24.8413146,15.7724689 23.1496351,15.7724689 C21.64592,15.7724689 20.7436909,16.4491407 19.4279402,17.6897056 L19.4279402,31.9749991 L12.7740009,31.9749991 Z M46.9459266,32.5012994 C40.9310662,32.5012994 36.3071422,28.3660829 36.3071422,21.2986219 C36.3071422,14.193568 41.5701451,10.0583515 47.5474126,10.0583515 C50.1413212,10.0583515 52.1713366,10.9605806 53.7878303,12.351517 L50.6676215,16.6371051 C49.6902067,15.8100618 48.8631633,15.4717259 47.9233414,15.4717259 C44.991097,15.4717259 43.149046,17.7272985 43.149046,21.2986219 C43.149046,24.8323524 45.0662827,27.087925 47.6977841,27.087925 C49.0511277,27.087925 50.3292856,26.4488461 51.419479,25.5842099 L53.9757947,29.9825766 C51.9081864,31.8246276 49.2014992,32.5012994 46.9459266,32.5012994 Z M66.1182941,32.5012994 C59.9906551,32.5012994 55.2539525,28.3660829 55.2539525,21.2986219 C55.2539525,14.3439395 60.2162124,10.0583515 65.4040295,10.0583515 C71.5692614,10.0583515 74.5766916,14.5319039 74.5766916,20.3963928 C74.5766916,21.561772 74.4263201,22.7647441 74.2759486,23.2534515 L61.7199275,23.2534515 C62.3214135,26.185696 64.3514289,27.3886681 67.0581161,27.3886681 C68.5994241,27.3886681 70.0279534,26.9375535 71.5692614,26.0353245 L73.7872412,30.0577624 C71.5692614,31.6366632 68.6370169,32.5012994 66.1182941,32.5012994 Z M61.6071488,18.8926777 L68.9001671,18.8926777 C68.9001671,16.7498837 67.9603452,15.1709828 65.5168081,15.1709828 C63.6747571,15.1709828 62.0582634,16.336362 61.6071488,18.8926777 Z M86.5312267,32.5012994 C81.1930381,32.5012994 77.7720862,28.2533042 77.7720862,21.2986219 C77.7720862,14.2687538 82.1704529,10.0583515 86.6064124,10.0583515 C88.9747637,10.0583515 90.3657002,10.9229877 91.7566366,12.2763313 L91.4934865,9.08093668 L91.4934865,1.93828994 L98.2226116,1.93828994 L98.2226116,31.9749991 L92.7716443,31.9749991 L92.2829369,29.9073908 L92.1325654,29.9073908 C90.6288503,31.411106 88.5612421,32.5012994 86.5312267,32.5012994 Z M88.2980919,27.0127393 C89.5762498,27.0127393 90.5912574,26.5992176 91.4934865,25.2082812 L91.4934865,16.7874766 C90.4784788,15.8476546 89.3130996,15.5093187 88.1853133,15.5093187 C86.3432623,15.5093187 84.6515828,17.2385911 84.6515828,21.1858433 C84.6515828,25.2834669 86.0049264,27.0127393 88.2980919,27.0127393 Z M113.259763,32.5012994 C107.132124,32.5012994 102.395421,28.3660829 102.395421,21.2986219 C102.395421,14.3439395 107.357681,10.0583515 112.545498,10.0583515 C118.71073,10.0583515 121.71816,14.5319039 121.71816,20.3963928 C121.71816,21.561772 121.567789,22.7647441 121.417417,23.2534515 L108.861396,23.2534515 C109.462882,26.185696 111.492897,27.3886681 114.199585,27.3886681 C115.740893,27.3886681 117.169422,26.9375535 118.71073,26.0353245 L120.92871,30.0577624 C118.71073,31.6366632 115.778485,32.5012994 113.259763,32.5012994 Z M108.748617,18.8926777 L116.041636,18.8926777 C116.041636,16.7498837 115.101814,15.1709828 112.658277,15.1709828 C110.816226,15.1709828 109.199732,16.336362 108.748617,18.8926777 Z" id="incede"></path>
                    <path d="M130.002263,32.1495901 C128.752929,32.1495901 127.866304,31.2024227 127.866304,30.0039661 C127.866304,28.8248395 128.752929,27.8776721 130.002263,27.8776721 C131.231447,27.8776721 132.138222,28.8248395 132.138222,30.0039661 C132.138222,31.2024227 131.231447,32.1495901 130.002263,32.1495901 Z" id="Dot"></path>
                    <path d="M140.839265,32.5139227 C138.686218,32.5139227 137.373885,30.9145166 137.373885,28.966522 C137.373885,26.5058973 139.301374,25.1730589 143.85353,24.680934 C143.771509,23.7376945 143.279384,23.184054 142.090082,23.184054 C141.167348,23.184054 140.203603,23.5531477 139.034806,24.2093143 L137.763484,21.8102052 C139.301374,20.8874709 140.962296,20.2723147 142.787259,20.2723147 C145.801524,20.2723147 147.503457,21.9537416 147.503457,25.6036683 L147.503457,32.2268498 L144.530202,32.2268498 L144.263634,31.058053 L144.181613,31.058053 C143.217869,31.9192717 142.131093,32.5139227 140.839265,32.5139227 Z M142.090082,29.6842042 C142.82827,29.6842042 143.320395,29.3356157 143.85353,28.76147 L143.85353,26.8954962 C141.577452,27.2030743 140.839265,27.8592409 140.839265,28.6794492 C140.839265,29.356121 141.33139,29.6842042 142.090082,29.6842042 Z M150.31267,32.2268498 L150.31267,20.5593876 L153.942091,20.5593876 L153.942091,32.2268498 L150.31267,32.2268498 Z M152.137633,18.9394763 C150.907321,18.9394763 150.046102,18.1602785 150.046102,17.0735026 C150.046102,15.9662215 150.907321,15.1870236 152.137633,15.1870236 C153.34744,15.1870236 154.208659,15.9662215 154.208659,17.0735026 C154.208659,18.1602785 153.34744,18.9394763 152.137633,18.9394763 Z" id="ai"></path>
                </g>
            </g>
        </g>
    </g>
</svg>