<?xml version="1.0" encoding="UTF-8"?>
<svg width="180px" height="180px" viewBox="0 0 180 180" version="1.1" xmlns="http://www.w3.org/2000/svg" xmlns:xlink="http://www.w3.org/1999/xlink">
    <!-- Generator: Sketch 55.2 (78181) - https://sketchapp.com -->
    <title>Logo/Woodside</title>
    <desc>Created with Sketch.</desc>
    <g id="Page-1" stroke="none" stroke-width="1" fill="none" fill-rule="evenodd">
        <g id="Solutions_Industries_Industrial-Manufacturing" transform="translate(-790.000000, -1588.000000)" fill-rule="nonzero">
            <g id="Logo/Woodside" transform="translate(790.000000, 1588.000000)">
                <rect id="Rectangle" fill="#D71638" x="0" y="0" width="179.778947" height="179.778947" rx="4"></rect>
                <polygon id="Path" fill="#FFFFFF" points="47.5894737 136.215789 44.0684211 136.215789 39.5684211 156.410526 33.6947368 136.373684 33.6315789 136.215789 30.1105263 136.215789 24.4421053 156.363158 19.9578947 136.389474 19.9263158 136.215789 16.2315789 136.215789 22.2 162.394737 22.2473684 162.568421 26.1947368 162.568421 31.8473684 142.2 37.6105263 162.410526 37.6578947 162.568421 41.5105263 162.568421 47.5578947 136.357895"></polygon>
                <g id="Group" transform="translate(34.201318, 22.807826)" fill="#FFFFFF">
                    <path d="M106.024998,129.907964 C106.107794,131.654456 105.697414,133.388996 104.840787,134.913227 C104.459381,135.566852 103.915465,136.110767 103.26184,136.492174 C102.458663,136.892003 101.569163,137.087259 100.672366,137.060595 C99.9200746,137.081532 99.1801371,136.866177 98.5565768,136.444806 C98.1307271,136.141261 97.7708454,135.754522 97.498682,135.307964 C97.0385408,134.545876 96.7227434,133.705534 96.5671031,132.829016 C96.3848702,131.919344 96.2949406,130.993597 96.298682,130.065858 C96.222861,128.517239 96.5723274,126.977403 97.3092084,125.613227 C98.0654898,124.340243 99.4616484,123.587532 100.940787,123.655332 C101.755299,123.639215 102.561883,123.817854 103.293419,124.176385 C104.227302,124.661913 104.959814,125.461525 105.36184,126.43428 C105.824951,127.538123 106.050887,128.726978 106.024998,129.923753 M109.56184,135.13428 L109.56184,113.281648 L106.103945,113.281648 L106.103945,122.455332 C105.579454,121.986112 104.995493,121.587956 104.367103,121.271122 C103.192815,120.69325 101.902186,120.390843 100.593419,120.386911 C99.3071207,120.366628 98.0364408,120.670722 96.898682,121.271122 C95.3850673,122.123363 94.2133849,123.473587 93.5828926,125.092174 C92.9108848,126.723822 92.577816,128.47512 92.6039452,130.239543 C92.5483126,132.58563 93.1675937,134.898343 94.3881557,136.902701 C95.0027972,137.890319 95.8480667,138.713915 96.8513136,139.302701 C97.9857555,139.931487 99.264923,140.25264 100.56184,140.23428 C102.642612,140.250651 104.645709,139.444873 106.135524,137.992174 L106.135524,139.713227 L109.688156,139.713227 L109.688156,138.292174 C109.688156,137.297437 109.54605,136.192174 109.54605,135.13428" id="Shape"></path>
                    <path d="M23.5723662,136.365858 C22.0611954,137.165895 20.2519582,137.165895 18.7407873,136.365858 C17.7520849,135.758485 16.9831615,134.851266 16.5460505,133.776385 C16.071763,132.696677 15.829689,131.529342 15.8355241,130.350069 C15.8049423,128.751329 16.2500955,127.179553 17.1144715,125.83428 C17.5121016,125.193338 18.0524775,124.652962 18.6934189,124.255332 C20.1995875,123.435403 22.0188292,123.435403 23.5249978,124.255332 C24.5401783,124.838895 25.3381648,125.73663 25.798682,126.813227 C26.2697413,127.910612 26.5115317,129.092698 26.5092084,130.286911 C26.526824,131.88395 26.0827044,133.452077 25.230261,134.802701 C24.8304216,135.441887 24.2905002,135.981809 23.6513136,136.381648 M25.230261,121.271122 C22.697344,120.093238 19.7737043,120.093238 17.2407873,121.271122 C15.6015756,122.08656 14.2756904,123.417993 13.4671031,125.060595 C12.6247139,126.6964 12.1861767,128.510104 12.1881557,130.350069 C12.1335511,132.776309 12.8953252,135.150598 14.3513136,137.092174 C15.0960903,138.068748 16.0584392,138.85809 17.1618399,139.397437 C19.6989579,140.556168 22.6141957,140.556168 25.1513136,139.397437 C26.7961394,138.576893 28.1270889,137.240398 28.9407873,135.592174 C29.7502255,133.964475 30.1615112,132.167806 30.1407873,130.350069 C30.1880962,127.924892 29.4270653,125.55292 27.9776294,123.607964 C27.2265634,122.635226 26.2587752,121.851264 25.1513136,121.31849" id="Shape"></path>
                    <path d="M46.0092084,130.350069 C46.0389169,131.961348 45.600097,133.546585 44.7460505,134.913227 C43.3265256,137.031638 40.5250018,137.716607 38.2881557,136.492174 C37.2913637,135.889963 36.5159667,134.981641 36.0776294,133.902701 C35.6095168,132.804395 35.3678514,131.622919 35.3671031,130.429016 C35.3512786,128.832216 35.7952577,127.264586 36.6460505,125.913227 C37.0458898,125.27404 37.5858113,124.734119 38.2249978,124.33428 C38.9623723,123.922492 39.7964346,123.715339 40.6407873,123.73428 C41.4843,123.722761 42.316472,123.929445 43.0565768,124.33428 C44.0456725,124.948273 44.8141963,125.860549 45.2513136,126.939543 C45.7319595,128.013442 45.9897889,129.173675 46.0092084,130.350069 M44.7460505,121.350069 C42.2143098,120.19196 39.3041069,120.19196 36.7723662,121.350069 C35.1275405,122.170614 33.796591,123.507109 32.9828926,125.155332 C32.1533867,126.762012 31.7151705,128.541928 31.7039452,130.350069 C31.6566363,132.775246 32.4176672,135.147218 33.8671031,137.092174 C34.6143211,138.068663 35.5830868,138.853417 36.6934189,139.381648 C39.2218959,140.554642 42.1386261,140.554642 44.6671031,139.381648 C46.3142928,138.571927 47.6468555,137.239364 48.4565768,135.592174 C49.2626159,133.963262 49.6737124,132.167419 49.6565768,130.350069 C49.6978552,127.920916 48.9376082,125.545838 47.4934189,123.592174 C46.7548521,122.650686 45.8164902,121.884896 44.7460505,121.350069" id="Shape"></path>
                    <path d="M64.6565768,129.971122 C64.7428027,131.724922 64.3264849,133.466884 63.4565768,134.992174 C63.0786845,135.648501 62.5339564,136.193229 61.8776294,136.571122 C61.069365,136.974054 60.1752932,137.174543 59.2723662,137.155332 C58.517775,137.175988 57.7763691,136.954673 57.1565768,136.523753 C56.7311611,136.22615 56.3711447,135.84464 56.098682,135.402701 C55.641209,134.633646 55.3256676,133.788636 55.1671031,132.907964 C54.985608,132.00351 54.8956803,131.083074 54.898682,130.160595 C54.8455278,128.616452 55.2168921,127.087305 55.9723662,125.739543 C56.3149305,125.160223 56.7983096,124.676844 57.3776294,124.33428 C58.0583225,123.959329 58.8271705,123.773933 59.6039452,123.797437 C60.4115821,123.781877 61.2117193,123.95488 61.9407873,124.302701 C62.8716444,124.799628 63.6023091,125.602801 64.0092084,126.576385 C64.476009,127.674042 64.7073076,128.85743 64.6881557,130.050069 M68.2249978,135.276385 L68.2249978,113.360595 L64.7513136,113.360595 L64.7513136,122.550069 C64.2295552,122.077369 63.6451026,121.678879 63.0144715,121.365858 C61.8427036,120.780978 60.5504108,120.478181 59.2407873,120.481648 C57.9544891,120.461365 56.6838092,120.765459 55.5460505,121.365858 C54.0326855,122.211055 52.8604413,123.556345 52.230261,125.171122 C51.5511888,126.812705 51.2075965,128.573615 51.2197347,130.350069 C51.1792978,132.689337 51.7975731,134.992823 53.0039452,136.997437 C53.6374468,137.980659 54.4916831,138.802456 55.498682,139.397437 C56.6331239,140.026224 57.9122914,140.347377 59.2092084,140.329016 C61.2948858,140.35518 63.3034658,139.541506 64.7828926,138.071122 L64.7828926,139.807964 L68.430261,139.807964 L68.430261,138.576385 C68.430261,137.53428 68.2881557,136.350069 68.2881557,135.213227" id="Shape"></path>
                    <path d="M82.0092084,129.244806 C80.5407873,128.739543 79.2144715,128.407964 78.030261,128.107964 C77.2565768,127.91849 76.6092084,127.760595 76.0407873,127.586911 C75.507025,127.447155 75.0073707,127.200014 74.5723662,126.860595 C74.446685,126.747989 74.3493155,126.607344 74.2881557,126.450069 C74.2064931,126.266543 74.1686534,126.066533 74.1776294,125.865858 C74.1687312,125.527337 74.2563544,125.193273 74.430261,124.902701 C74.7230158,124.484873 75.1444646,124.174332 75.630261,124.01849 C76.2453658,123.810395 76.891506,123.708935 77.5407873,123.71849 C78.4371309,123.676657 79.3290876,123.867014 80.130261,124.271122 C80.439729,124.437886 80.7049614,124.676054 80.9039452,124.965858 C81.1130753,125.287658 81.2379547,125.656867 81.2671031,126.039543 L81.2671031,126.639543 L84.9144715,126.639543 L84.9144715,125.929016 C84.8811731,125.024506 84.6436653,124.13925 84.2197347,123.339543 C83.609894,122.295657 82.6550539,121.497165 81.5197347,121.081648 C80.3296585,120.657717 79.0722427,120.45439 77.8092084,120.481648 C76.1527983,120.445918 74.5170904,120.854845 73.0723662,121.665858 C71.5326533,122.561567 70.6058485,124.227392 70.6565768,126.007964 C70.6377166,126.825264 70.8395341,127.632534 71.2407873,128.344806 C71.5135404,128.813194 71.8724906,129.225719 72.298682,129.560595 C72.9381716,130.056075 73.6596356,130.435511 74.430261,130.681648 C75.2039452,130.950069 76.0092084,131.155332 76.830261,131.360595 L77.3513136,131.471122 C78.4591979,131.655154 79.5442861,131.956861 80.5881557,132.371122 C80.9782624,132.551295 81.3274938,132.809189 81.6144715,133.129016 C81.8440498,133.457472 81.9654767,133.84935 81.9618399,134.250069 C81.9706069,134.688742 81.8556972,135.121021 81.630261,135.497437 C81.2875469,136.035907 80.7770434,136.446529 80.1776294,136.665858 C79.4673708,136.939462 78.712445,137.078668 77.9513136,137.076385 C76.9292974,137.1217 75.9127278,136.904252 74.998682,136.444806 C74.6375793,136.252644 74.3328187,135.969652 74.1144715,135.623753 C73.8635841,135.231162 73.7218776,134.778792 73.7039452,134.313227 L73.7039452,133.697437 L70.0092084,133.697437 L70.0092084,134.376385 C70.0135059,135.344071 70.2634181,136.294824 70.7355241,137.139543 C71.4129829,138.258507 72.4392821,139.123927 73.6565768,139.602701 C74.8459682,140.080306 76.1170081,140.321643 77.398682,140.313227 C79.354908,140.333814 81.2749274,139.785237 82.9249978,138.73428 C83.7100151,138.229604 84.3603282,137.541356 84.8197347,136.729016 C85.3208166,135.855202 85.577172,134.862506 85.5618399,133.855332 C85.5652684,132.815314 85.2330179,131.80195 84.6144715,130.965858 C83.9760536,130.121834 83.0943901,129.493649 82.0881557,129.165858" id="Path"></path>
                    <rect id="Rectangle" x="87.0934189" y="113.407964" width="3.82105263" height="3.93157895"></rect>
                    <rect id="Rectangle" x="87.2671031" y="121.065858" width="3.47368421" height="18.7736842"></rect>
                    <path d="M117.093419,125.186911 C117.495612,124.702912 117.996164,124.310006 118.56184,124.03428 C119.183242,123.757423 119.855251,123.612269 120.535524,123.607964 C121.293113,123.604602 122.044047,123.749425 122.74605,124.03428 C123.623527,124.40651 124.355384,125.055202 124.830261,125.881648 C125.238417,126.609503 125.506219,127.407551 125.619735,128.23428 L115.798682,128.23428 C115.982553,127.128399 116.450455,126.089221 117.156577,125.21849 L117.093419,125.186911 Z M125.619735,133.397437 C125.385091,134.398883 124.830857,135.296742 124.040787,135.955332 C123.223475,136.630784 122.195822,136.999399 121.135524,136.997437 C120.273058,137.018629 119.416335,136.851595 118.624998,136.507964 C117.646837,136.062483 116.85809,135.284924 116.398682,134.313227 C115.972251,133.42276 115.725446,132.457 115.672366,131.471122 L129.409208,131.471122 L129.409208,130.807964 C129.549786,128.229958 128.863872,125.674374 127.451314,123.513227 C126.738751,122.528625 125.788042,121.740895 124.688156,121.223753 C123.383473,120.637673 121.965588,120.346549 120.535524,120.371122 C119.223712,120.361129 117.927162,120.652853 116.74605,121.223753 C115.15364,122.053421 113.873675,123.377713 113.098682,124.997437 C112.297831,126.666361 111.897736,128.499229 111.930261,130.350069 C111.867096,132.777527 112.580699,135.161736 113.967103,137.155332 C114.665444,138.108452 115.579964,138.882276 116.635524,139.413227 C117.807954,139.992819 119.101482,140.28508 120.409208,140.265858 C122.403808,140.356595 124.374653,139.802986 126.030261,138.686911 C127.628302,137.445828 128.744755,135.687415 129.188156,133.713227 L129.188156,133.460595 L125.619735,133.397437 Z" id="Shape"></path>
                    <path d="M108.772366,15.750069 C102.96184,10.8711216 83.5092084,28.2553321 75.4407873,35.9763848 C77.5407873,50.8027006 74.7618399,62.6921743 67.3565768,74.0605953 C66.6005064,75.2257098 65.7670527,76.3387398 64.8618399,77.3921743 C72.7565768,78.3869111 84.6934189,71.0763848 99.1407873,50.81849 C107.177629,39.4658585 115.719735,21.5763848 108.772366,15.750069" id="Path"></path>
                    <path d="M44.5407873,86.3448058 C32.4144715,83.9448058 30.1249978,70.5553321 30.8355241,57.9237532 L30.8355241,56.6290164 C20.6828926,48.7342795 6.77236625,39.4816479 2.28815572,43.7132269 C-4.61184428,50.21849 5.44605046,68.4237532 14.5249978,79.7921743 C35.0513136,105.465858 50.2092084,109.665858 57.4407873,102.73428 C59.8249978,100.444806 61.7828926,94.3816479 56.3355241,84.1974374 L56.0513136,84.3553321 C52.5010141,86.2109875 48.4669335,86.9329336 44.4934189,86.4237532" id="Path"></path>
                    <path d="M75.4407873,35.9763848 L75.4407873,35.9763848 C72.6460505,18.9237532 61.3407873,-0.44993101 52.4197347,0.0079637265 C43.0881557,0.481647937 31.8934189,33.9237532 30.8828926,56.550069 C36.6144715,61.01849 41.1618399,65.0605953 42.1092084,66.0237532 C47.7054746,71.333854 52.4932023,77.435547 56.3197347,84.1342795 C59.5715347,82.4881629 62.4559253,80.1999871 64.798682,77.4079637 C62.8561012,77.1675699 61.0273656,76.3602902 59.5407873,75.0869111 C55.9565768,72.0395427 52.8144715,60.8763848 72.1723662,39.3237532 C72.598682,38.8658585 73.7513136,37.650069 75.4723662,36.0079637" id="Path"></path>
                </g>
            </g>
        </g>
    </g>
</svg>